<svg xmlns="http://www.w3.org/2000/svg" viewBox="0 0 1920 1300"><defs><style>.cls-1{fill:#1a1a1a;}</style></defs><title>background</title><g id="Layer_2" data-name="Layer 2"><g id="Layer_1-2" data-name="Layer 1"><g id="Layer_1-2-2" data-name="Layer 1-2"><path class="cls-1" d="M1920,581v719h-41.07c-56.19-78.12-147.86-129-251.43-129s-195.24,50.88-251.43,129H1220.93c-56.19-78.12-147.86-129-251.43-129s-195.24,50.88-251.43,129H543.93c-56.19-78.12-147.86-129-251.43-129S97.26,1221.88,41.07,1300H0V0H690C855,10,960,220,960,220s9.44,15.07,15,23c50.24,71.68,146.1,188.6,472,189C1834,432.47,1920,581,1920,581Z"/></g></g></g></svg>